<?xml version="1.0" standalone="no"?>
<!DOCTYPE svg PUBLIC "-//W3C//DTD SVG 1.1//EN" "http://www.w3.org/Graphics/SVG/1.1/DTD/svg11.dtd" >
<svg xmlns="http://www.w3.org/2000/svg" xmlns:xlink="http://www.w3.org/1999/xlink" version="1.1">
<metadata></metadata>
<defs>
<font id="public_sansbold_italic" horiz-adv-x="1437" >
<font-face units-per-em="2048" ascent="1597" descent="-451" />
<missing-glyph horiz-adv-x="458" />
<glyph unicode="&#xfb01;" horiz-adv-x="1361" d="M88 852l33 207h186l25 151q19 129 102.5 200t216.5 71h240l-29 -199h-135q-55 0 -80.5 -27.5t-34.5 -93.5l-14 -102h221l-31 -207h-215l-127 -852h-294l124 852h-188zM850 0l158 1059h295l-156 -1059h-297zM1030 1229l41 270h301l-41 -270h-301z" />
<glyph unicode="&#xfb02;" horiz-adv-x="1427" d="M88 852l33 207h186l25 151q19 129 102.5 200t216.5 71h240l-29 -199h-135q-55 0 -80.5 -27.5t-34.5 -93.5l-14 -102h221l-31 -207h-215l-127 -852h-294l124 852h-188zM879 231.5q2 28.5 8 65.5l180 1225h291l-176 -1188q-8 -63 12 -97.5t84 -41.5l45 -2l-27 -187 q-70 -24 -125 -24q-64 0 -113.5 10t-81.5 25.5t-53 41t-31 50.5t-12.5 59.5t-0.5 63z" />
<glyph horiz-adv-x="53" />
<glyph horiz-adv-x="53" />
<glyph horiz-adv-x="682" />
<glyph unicode="&#xd;" horiz-adv-x="487" />
<glyph unicode=" "  horiz-adv-x="458" />
<glyph unicode="&#x09;" horiz-adv-x="458" />
<glyph unicode="&#xa0;" horiz-adv-x="458" />
<glyph unicode="!" horiz-adv-x="573" d="M29 0l49 319h321l-49 -319h-321zM168 457l70 1024h344l-228 -1024h-186z" />
<glyph unicode="&#x22;" horiz-adv-x="976" d="M240 907l10 574h299l-162 -574h-147zM688 907l8 574h301l-161 -574h-148z" />
<glyph unicode="#" horiz-adv-x="1224" d="M70 461v155h256l39 265h-230v155h252l68 449l155 -17l-63 -432h274l68 449l155 -17l-63 -432h221v-155h-244l-38 -265h217v-155h-242l-68 -465l-157 20l65 445h-274l-70 -465l-155 20l65 445h-231zM483 616h277l39 265h-277z" />
<glyph unicode="$" horiz-adv-x="1363" d="M86 416l307 6q9 -99 79.5 -152t189.5 -53q106 0 181.5 52t86.5 132q12 79 -30 120t-148 67l-228 51q-165 36 -245.5 138.5t-57.5 269.5q24 176 163 293t341 149l31 203h254l-31 -203q181 -33 272 -153.5t64 -280.5l-299 -4q2 105 -41.5 158t-153.5 53q-117 0 -191.5 -50 t-86.5 -131q-9 -67 28 -104.5t148 -67.5l221 -57q355 -93 305 -451q-26 -166 -157.5 -275.5t-335.5 -137.5l-27 -183h-254l27 183q-206 24 -313.5 131t-98.5 297z" />
<glyph unicode="%" horiz-adv-x="1785" d="M172 1079q26 179 143.5 301.5t262.5 122.5q146 0 227.5 -122.5t56.5 -301.5q-26 -178 -140 -296.5t-261 -118.5q-149 0 -230.5 118.5t-58.5 296.5zM375 1079q-18 -126 8 -195t96 -69q141 0 178 264q19 130 -6 201.5t-96 71.5q-69 0 -115 -72t-65 -201zM381 -8l256 473 l938 1032l-256 -471zM971 397q26 178 143 301t262 123q96 0 167 -56.5t102 -154t14 -213.5q-25 -178 -140 -297.5t-262 -119.5t-229 120t-57 297zM1176 395q-18 -123 7.5 -192.5t94.5 -69.5q137 0 178 262q18 128 -8 201.5t-94 73.5q-69 0 -114.5 -73.5t-63.5 -201.5z" />
<glyph unicode="&#x26;" horiz-adv-x="1564" d="M74 371q21 146 123.5 249.5t308.5 206.5q-20 28 -31 43t-27.5 39t-24.5 39.5t-19 37.5t-15.5 40t-8.5 40t-3.5 44.5t4.5 46.5q24 150 157.5 248t321.5 98t301 -89.5t92 -231.5q-31 -205 -376 -396l180 -272q106 174 145 328h303q-27 -64 -73 -138.5t-79 -120.5t-98 -131 t-84 -110l236 -342h-338l-100 145q-231 -155 -488 -155q-230 0 -331.5 103.5t-75.5 277.5zM408 389q-1 -79 53 -125.5t129 -46.5q59 0 132.5 28t129.5 77l-229 335q-94 -51 -154 -119t-61 -149zM676 1178q-13 -91 67 -197l33 -45q113 66 161 120t56 113q11 76 -33 115.5 t-116 36.5q-68 -1 -114 -42t-54 -101z" />
<glyph unicode="'" horiz-adv-x="530" d="M238 907l10 574h301l-162 -574h-149z" />
<glyph unicode="(" horiz-adv-x="679" d="M133 606q37 246 146.5 479t271.5 433h209q-295 -449 -365 -914q-31 -242 -8.5 -449.5t98.5 -447.5h-206q-104 238 -143 446t-3 453z" />
<glyph unicode=")" horiz-adv-x="684" d="M-92 -295q295 449 362 913q25 149 20 302t-31 295t-77 301h207q104 -238 143 -446.5t3 -453.5q-73 -484 -418 -911h-209z" />
<glyph unicode="*" horiz-adv-x="968" d="M141 1112l62 174l284 -123l-22 318h194l-26 -320l289 129l57 -176l-293 -84l207 -248l-162 -112l-170 280l-172 -284l-160 110l211 254z" />
<glyph unicode="+" horiz-adv-x="1181" d="M133 635l33 219h366l56 375h213l-56 -375h365l-33 -217h-362l-56 -375h-215l56 373h-367z" />
<glyph unicode="," horiz-adv-x="565" d="M-18 -287l155 279l-100 10l43 289h297l-39 -254l-248 -324h-108z" />
<glyph unicode="-" horiz-adv-x="798" d="M104 418l31 217l543 2l-31 -219h-543z" />
<glyph unicode="." horiz-adv-x="550" d="M29 0l49 326h321l-49 -326h-321z" />
<glyph unicode="/" horiz-adv-x="776" d="M-55 -37l727 1518h207l-729 -1518h-205z" />
<glyph unicode="0" horiz-adv-x="1267" d="M106 735q55 367 232.5 567.5t437.5 200.5t378.5 -200t64.5 -566q-55 -365 -229.5 -560t-438.5 -195q-263 0 -381 194.5t-64 558.5zM414 735q-39 -272 3 -392t171 -120t204.5 119t116.5 393q41 281 -0.5 406t-167.5 125q-129 0 -207 -125t-120 -406z" />
<glyph unicode="1" horiz-adv-x="856" d="M162 1110l24 168q179 0 272 51.5t120 151.5h194l-221 -1481h-297l164 1110h-256z" />
<glyph unicode="2" horiz-adv-x="1284" d="M39 0l22 147l11 76q16 107 70.5 194t129 144.5t162 106t173.5 89t158.5 81.5t122 95.5t58.5 119.5q14 89 -38 144.5t-154 55.5q-109 0 -192.5 -66t-119.5 -192h-282q17 108 66.5 199t128.5 160t193 108t251 39q242 0 365 -122t93 -324q-12 -84 -48 -155t-85.5 -121 t-111 -92.5t-127 -74.5t-130.5 -61t-124.5 -58.5t-106.5 -61t-78 -73.5t-38 -92l-2 -14h731l-39 -252h-1059z" />
<glyph unicode="3" horiz-adv-x="1286" d="M57 459h283q1 -122 64 -181t171 -59q131 0 215.5 58t98.5 153q13 94 -54.5 150t-189.5 59l-135 6l35 238l125 6q115 4 192.5 60t91.5 143q10 79 -54 128.5t-173 49.5q-110 0 -189.5 -58.5t-107.5 -185.5h-280q22 154 112 263t219.5 160.5t286.5 51.5q254 0 392 -101 t110 -296q-32 -232 -312 -326q126 -37 195 -126.5t47 -231.5q-21 -141 -118 -242.5t-237.5 -150t-307.5 -47.5q-260 1 -385.5 127.5t-94.5 351.5z" />
<glyph unicode="4" horiz-adv-x="1273" d="M33 328l37 245l786 908h291l-133 -903h221l-39 -250h-221l-49 -328h-283l49 328h-659zM342 578h389l80 542z" />
<glyph unicode="5" horiz-adv-x="1335" d="M45 326l250 137q48 -116 120 -180t191 -64q129 0 217 70t105 184q15 109 -51 180.5t-187 71.5q-68 0 -126 -20.5t-136 -77.5q-15 -6 -21.5 -5.5t-19.5 7.5l-197 100l177 752h927l-49 -246h-682l-82 -356q166 88 322 88q223 0 346 -128.5t90 -355.5 q-35 -232 -207.5 -367.5t-429.5 -135.5q-211 0 -361.5 95.5t-195.5 250.5z" />
<glyph unicode="6" horiz-adv-x="1298" d="M104 717q54 366 246.5 578t474.5 212q137 0 244.5 -50t165.5 -148.5t45 -229.5h-270q-24 191 -213 191q-151 0 -246.5 -132.5t-106.5 -349.5q60 72 153.5 113t193.5 41q220 0 336 -124t85 -329q-32 -219 -205.5 -359t-416.5 -140q-276 0 -406.5 196.5t-79.5 530.5z M414 530q-21 -147 33.5 -231t166.5 -84q103 0 185 73t100 187q17 119 -42.5 181.5t-168.5 62.5q-91 0 -178 -60t-96 -129z" />
<glyph unicode="7" horiz-adv-x="1198" d="M166 1235l37 246h1077l-39 -246q-134 -145 -279.5 -370t-257.5 -463.5t-141 -401.5h-319q23 99 74.5 232t133.5 298t208.5 352.5t273.5 352.5h-768z" />
<glyph unicode="8" horiz-adv-x="1294" d="M51 418q18 123 118.5 228t207.5 128q-88 46 -134 125t-30 188q19 130 101.5 225t206 142t272.5 47q111 0 201.5 -27.5t152.5 -79t89.5 -130.5t12.5 -177q-16 -110 -85 -188.5t-171 -124.5q100 -23 169 -128t50 -228q-29 -197 -205 -313.5t-440 -116.5q-173 0 -297 52 t-181.5 150t-37.5 228zM367 426q-14 -99 48.5 -157t184.5 -58q125 0 205.5 58t95.5 157q12 99 -50.5 160t-184.5 61q-123 0 -204 -61.5t-95 -159.5zM508 1094q-15 -96 39.5 -150.5t154.5 -54.5q99 0 169 54.5t85 150.5q13 95 -41.5 152t-152.5 57q-97 0 -169 -57.5 t-85 -151.5z" />
<glyph unicode="9" horiz-adv-x="1245" d="M74 414h260q5 -88 56.5 -139.5t139.5 -51.5q157 0 257.5 119.5t121.5 374.5q-53 -84 -143.5 -132t-202.5 -48q-210 0 -324 127.5t-85 341.5q32 220 193 358.5t390 138.5q260 0 382 -195.5t75 -531.5q-54 -390 -232.5 -589t-451.5 -199q-128 0 -230.5 51.5t-159 149.5 t-46.5 225zM453 1018q-17 -114 35.5 -179t154.5 -65q87 0 170 60.5t94 128.5q21 148 -31.5 232.5t-160.5 84.5q-97 0 -171 -73t-91 -189z" />
<glyph unicode=":" horiz-adv-x="555" d="M29 6l47 320h323l-49 -320h-321zM133 713l47 321h324l-47 -321h-324z" />
<glyph unicode=";" horiz-adv-x="573" d="M-18 -315l178 315h-115l47 322h324l-41 -285l-275 -352h-118zM145 702l50 326h321l-47 -326h-324z" />
<glyph unicode="&#x3c;" horiz-adv-x="1165" d="M127 578l37 249l975 367l-39 -256l-631 -238l561 -231l-39 -256z" />
<glyph unicode="=" horiz-adv-x="1185" d="M96 362l33 218l942 2l-33 -220h-942zM166 831l33 218h942l-33 -218h-942z" />
<glyph unicode="&#x3e;" horiz-adv-x="1165" d="M76 213l39 256l630 231l-563 238l39 256l866 -367l-36 -249z" />
<glyph unicode="?" horiz-adv-x="1089" d="M111 1165q90 162 233.5 249t325.5 87q210 0 328 -100.5t94 -247.5q-10 -68 -39 -126.5t-69.5 -102t-87 -84t-93.5 -80t-87 -81.5t-70 -97.5t-40 -118.5h-235q16 105 63 193t103.5 148t112.5 112t98 108t51 113q10 72 -36 115.5t-126 43.5t-159 -52.5t-124 -139.5zM258 0 l49 319h322l-47 -319h-324z" />
<glyph unicode="@" horiz-adv-x="1673" d="M93 286q-14 111 1 236q25 161 103.5 306t196 254t278 173t338.5 64q108 0 204 -23t179 -73.5t139 -123.5t79 -181.5t3 -239.5q-34 -228 -162 -372t-297 -144q-144 0 -172 94q-4 8 -7.5 10t-7.5 0t-12 -10q-119 -123 -276 -123q-126 0 -195 98t-45 256q27 189 156.5 325 t302.5 136q76 0 120.5 -26.5t76.5 -75.5q3 -5 8 -3.5t8 11.5l16 43h168l-135 -440q-40 -125 39 -125q75 0 144 88t92 246q20 132 -9.5 230t-97.5 153t-154 80.5t-190 25.5q-154 0 -281.5 -50.5t-213.5 -138t-140 -200t-74 -242.5q-40 -277 98.5 -436.5t422.5 -159.5 q65 0 117.5 8.5t101 28.5t78.5 36.5t82 49.5l71 -121q-91 -68 -223.5 -111.5t-280.5 -43.5q-140 0 -256.5 38t-195 106t-131.5 162t-67 205zM651 508q-13 -86 15 -140.5t94 -54.5q81 0 150.5 72.5t90.5 169.5q21 94 -11 153.5t-101 59.5q-85 0 -154 -75.5t-84 -184.5z" />
<glyph unicode="A" d="M-25 0l736 1481h309l295 -1481h-295l-64 344h-516l-168 -344h-297zM545 604h379l-101 588z" />
<glyph unicode="B" horiz-adv-x="1382" d="M92 0l219 1481h525q278 0 402 -99q101 -81 102 -224q0 -31 -5 -66q-18 -113 -87 -194t-212 -140q83 -23 136.5 -63.5t73 -87.5t25.5 -101q2 -19 2 -38q0 -34 -7 -67q-31 -205 -181.5 -303t-443.5 -98h-549zM424 231h258q125 0 200 53t89 146q2 17 2 33q0 72 -49 115 q-60 53 -168 53h-275zM516 868h275q96 0 167 47t84 140q3 18 3 35q-1 68 -49 108q-60 50 -169 51h-256z" />
<glyph unicode="C" horiz-adv-x="1449" d="M139 752q51 346 255.5 547.5t506.5 201.5q161 0 281 -65q120 -64 180 -178q55 -103 56 -231q0 -13 -1 -26l-309 -4q-3 121 -67 189.5t-187 68.5q-317 0 -391 -507q-15 -99 -14 -180q-1 -134 39 -214q64 -130 221 -129q111 0 197 76t126 197l309 -6q-24 -87 -60.5 -160.5 t-92.5 -140t-127 -112t-168.5 -72.5t-212.5 -27q-199 0 -333.5 97t-188.5 272q-33 107 -32 234q0 80 13 169z" />
<glyph unicode="D" horiz-adv-x="1449" d="M92 0l219 1481q311 0 434 -2q379 -9 533 -199q116 -143 116 -372q0 -76 -12 -160q-52 -355 -270 -551.5t-596 -196.5h-424zM426 242h133q94 0 175.5 27.5t152 86t119.5 158.5t69 236q9 67 9 125q0 364 -373 364h-138z" />
<glyph unicode="E" horiz-adv-x="1300" d="M92 0l219 1481h992l-39 -252h-693l-53 -359h600l-37 -247h-602l-53 -367l707 -2l-41 -254h-1000z" />
<glyph unicode="F" horiz-adv-x="1230" d="M92 0l219 1481h981l-37 -250h-684l-55 -373h592l-37 -244h-590l-90 -614h-299z" />
<glyph unicode="G" horiz-adv-x="1527" d="M137 735q52 351 265 558.5t513 207.5q125 0 228.5 -41.5t169 -110.5t97.5 -159q23 -67 23 -137q0 -24 -3 -49l-314 -7q-5 111 -69 181.5t-177 70.5q-154 0 -264 -124.5t-147 -376.5q-12 -90 -12 -161v-11q1 -75 18 -131t42 -95t62 -63t77 -34.5t87 -10.5q117 0 203 73.5 t111 163.5l24 90h-295l31 207l606 -2l-115 -774h-202l28 193q-38 -43 -76.5 -76t-93.5 -67t-127 -52t-155 -18q-195 0 -328 93t-188 265q-33 104 -33 229q0 80 14 168z" />
<glyph unicode="H" horiz-adv-x="1474" d="M92 0l219 1481h297l-88 -594h541l88 594h297l-221 -1481h-297l94 637h-541l-92 -637h-297z" />
<glyph unicode="I" horiz-adv-x="634" d="M92 0l217 1481h297l-217 -1481h-297z" />
<glyph unicode="J" horiz-adv-x="827" d="M-20 12l45 275q7 -2 29.5 -8t35.5 -9.5t35 -6.5t43 -3q99 0 143 52.5t62 179.5l147 989h295l-158 -1069q-17 -113 -44.5 -189t-77 -133t-126 -83.5t-186.5 -26.5q-128 0 -243 32z" />
<glyph unicode="K" d="M92 0l219 1481h307l-98 -678l619 678h336l-517 -572l353 -909h-322l-276 690l-250 -266l-64 -424h-307z" />
<glyph unicode="L" horiz-adv-x="1146" d="M92 0l219 1481h297l-180 -1229h621l-37 -252h-920z" />
<glyph unicode="M" horiz-adv-x="1849" d="M92 0l217 1481h432l168 -1055l482 1055h428l-217 -1481h-299l165 1133l-507 -1133h-230l-174 1126l-168 -1126h-297z" />
<glyph unicode="N" horiz-adv-x="1581" d="M92 0l219 1481h295l506 -981l143 981h297l-219 -1481h-266l-528 1018l-150 -1018h-297z" />
<glyph unicode="O" horiz-adv-x="1542" d="M137 735q52 354 263 560t515 206q303 1 451 -205q110 -152 109 -386q0 -82 -13 -173q-52 -351 -260.5 -554t-511.5 -203q-309 0 -457 202q-110 149 -110 381q0 81 14 172zM459 733q-13 -89 -13 -162q0 -141 48 -223q72 -124 233.5 -123.5t268.5 123.5t145 385 q13 94 13 171q0 142 -45 224q-70 127 -230 127q-162 0 -271 -127.5t-149 -394.5z" />
<glyph unicode="P" horiz-adv-x="1320" d="M92 0l219 1481h531q159 0 274.5 -55.5t171.5 -166.5q40 -79 40 -178q0 -41 -7 -86q-32 -219 -189.5 -343t-392.5 -124h-270l-78 -528h-299zM500 760h266q107 0 187.5 72t95.5 180q3 21 3 41q0 81 -50 133q-62 66 -168 65h-261z" />
<glyph unicode="Q" horiz-adv-x="1523" d="M106 737q52 354 263 559t514 205q304 0 453 -205q111 -152 111 -386q0 -82 -13 -173q-62 -408 -330 -612q13 -62 72.5 -98.5t140.5 -38.5l-37 -240q-79 0 -136.5 8.5t-117.5 33.5t-110 75.5t-93 128.5q-95 -14 -166 -14q-306 0 -455 202q-109 149 -109 382q0 81 13 173z M428 733q-13 -92 -13 -167q0 -140 45 -219q69 -122 234 -122q167 0 272 122t144 388q14 95 14 173q0 347 -276 347q-342 0 -420 -522z" />
<glyph unicode="R" horiz-adv-x="1398" d="M92 0l219 1481h609q250 1 356 -119q82 -92 81 -236q0 -42 -7 -88q-13 -84 -43 -152.5t-74 -118t-91 -84t-106 -62.5l174 -621h-305l-147 571h-287l-84 -571h-295zM506 801h264q113 0 189.5 63.5t91.5 165.5q3 21 3 41q0 73 -44 121q-56 61 -154 61h-285z" />
<glyph unicode="S" horiz-adv-x="1419" d="M86 416l309 6q6 -98 80.5 -152.5t194.5 -54.5q128 0 217 47.5t102 138.5q2 12 2 24q1 61 -49 99q-58 44 -172 68l-244 51q-166 33 -247 135q-63 79 -63 198q0 34 5 71q29 204 209 328t424 124q125 0 227 -37t166.5 -98.5t97.5 -141.5q29 -71 29 -148v-19l-299 -4 q1 111 -64.5 161t-187.5 50q-117 0 -192.5 -50t-87.5 -131q-2 -13 -2 -26q1 -51 31 -82q38 -39 147 -64l239 -53q342 -68 342 -360q0 -45 -8 -95q-16 -118 -104 -214t-232.5 -151.5t-318.5 -55.5q-112 0 -211.5 27t-178 79t-122.5 138q-40 77 -40 170q0 11 1 22z" />
<glyph unicode="T" horiz-adv-x="1216" d="M127 1214l39 267h1153l-39 -267h-426l-178 -1214h-295l178 1214h-432z" />
<glyph unicode="U" horiz-adv-x="1472" d="M166 326q-7 47 -7 98q0 70 13 149l133 908h301l-137 -930q-7 -44 -6 -83q1 -99 45 -156q62 -79 192 -79q128 0 215 79.5t111 238.5l135 930h299l-135 -916q-20 -139 -67 -244t-126 -183t-197 -118t-273 -40q-156 0 -263 41t-161.5 118t-71.5 187z" />
<glyph unicode="V" horiz-adv-x="1370" d="M158 1481h280l211 -1133l547 1133h283l-717 -1481h-332z" />
<glyph unicode="W" horiz-adv-x="1933" d="M174 1481h289l121 -977l407 977h213l127 -977l406 977h288l-645 -1481h-233l-125 969l-414 -969h-229z" />
<glyph unicode="X" horiz-adv-x="1402" d="M-33 0l588 752l-354 729h368l211 -477l353 477h313l-543 -690l385 -791h-368l-242 532l-391 -532h-320z" />
<glyph unicode="Y" horiz-adv-x="1323" d="M147 1481h320l240 -600l411 600h324l-629 -858l-92 -623h-295l92 623z" />
<glyph unicode="Z" horiz-adv-x="1351" d="M25 0l22 145l887 1086h-678l39 250h1100l-21 -140l-899 -1087h729l-39 -254h-1140z" />
<glyph unicode="[" horiz-adv-x="694" d="M31 -330l268 1811h459l-25 -170h-219l-217 -1471h217l-25 -170h-458z" />
<glyph unicode="\" horiz-adv-x="749" d="M150 1481h204l279 -1518h-205z" />
<glyph unicode="]" horiz-adv-x="706" d="M-90 -330l27 170h217l217 1471h-217l24 170h459l-268 -1811h-459z" />
<glyph unicode="^" horiz-adv-x="968" d="M31 252l422 754q25 45 64.5 63t75 1.5t48.5 -62.5l197 -758h-199l-127 524l-283 -522h-198z" />
<glyph unicode="_" horiz-adv-x="1114" d="M6 -283l33 215l864 2l-33 -217h-864z" />
<glyph unicode="`" horiz-adv-x="636" d="M133 1309l96 194l473 -211l-63 -127z" />
<glyph unicode="a" horiz-adv-x="1124" d="M37 303q27 176 168.5 266t412.5 93l125 2l11 63q2 15 2 29q0 53 -30 84q-38 39 -118 39q-67 -2 -128 -36t-91 -100h-246q33 160 171 248t337 88q227 0 319 -88q74 -70 75 -186q0 -29 -5 -60l-112 -745h-246l2 180q-68 -111 -150.5 -155.5t-195.5 -44.5q-154 0 -238 86 q-68 68 -67 179q0 28 4 58zM324 334q-2 -14 -2 -28q0 -54 32 -88q40 -42 113 -42q78 0 148.5 54.5t82.5 123.5l23 156l-103 -2q-56 -1 -104 -10.5t-89.5 -29t-68 -53.5t-32.5 -81z" />
<glyph unicode="b" horiz-adv-x="1212" d="M57 0l226 1522h295l-93 -635q58 84 143.5 138t188.5 54q195 1 279 -147q58 -103 58 -256q0 -66 -11 -141q-39 -258 -174 -406.5t-344 -148.5q-120 0 -197.5 55.5t-103.5 134.5l-54 -170h-213zM424 485q-6 -42 -6 -78q0 -82 30 -135q43 -77 136 -77q210 0 258 344 q9 61 9 111q0 212 -167 212q-56 0 -99.5 -22.5t-72 -62.5t-46.5 -86.5t-28 -102.5z" />
<glyph unicode="c" horiz-adv-x="1071" d="M70 524q37 246 198 400.5t381 154.5q187 0 287 -114q87 -100 88 -248q0 -21 -2 -43l-246 -2q-3 78 -41 129t-114 51q-105 0 -178.5 -85.5t-96.5 -238.5q-7 -49 -7 -91q0 -92 34 -154q50 -90 155 -90q75 0 129 54t78 124h238q-34 -171 -168.5 -281t-317.5 -110 q-219 0 -335 151q-90 116 -90 286q0 51 8 107z" />
<glyph unicode="d" horiz-adv-x="1206" d="M72 535q36 248 163.5 396t321.5 148q103 0 178.5 -45t104.5 -114l90 602h295l-226 -1522h-213l-2 217q-46 -102 -134.5 -169.5t-225.5 -67.5q-209 0 -300 148q-64 104 -64 262q0 68 12 145zM358 338q18 -76 59 -109.5t105 -33.5q94 0 162.5 70t87.5 186l25 165q2 23 2 44 q-1 40 -9 76q-14 54 -57 90t-112 36q-100 0 -168.5 -77.5t-92.5 -245.5q-11 -65 -11 -117q0 -48 9 -84z" />
<glyph unicode="e" horiz-adv-x="1120" d="M68 518q36 244 194 402.5t387 158.5q231 0 333 -146q76 -108 76 -270q0 -57 -9 -120l-13 -82h-686q-5 -35 -5 -66q0 -77 33 -127q47 -70 148 -71q157 0 228 139h264q-35 -111 -117.5 -193t-185.5 -122.5t-213 -40.5q-230 0 -350 146q-92 112 -92 283q0 52 8 109zM377 639 h411q3 25 3 48q1 71 -31 119q-42 64 -142 64q-94 0 -161 -69t-80 -162z" />
<glyph unicode="f" horiz-adv-x="786" d="M88 852l33 207h186l25 151q19 129 102.5 200t216.5 71h240l-29 -199h-135q-55 0 -80.5 -27.5t-34.5 -93.5l-14 -102h221l-31 -207h-215l-127 -852h-294l124 852h-188z" />
<glyph unicode="g" horiz-adv-x="1255" d="M-49 -90q8 50 44 91t70.5 59.5t74.5 34.5l40 16q-3 2 -13.5 8t-17 10t-18.5 12.5t-18.5 16t-16.5 20t-12.5 24.5t-6.5 29.5t1 34.5q8 60 69 107t166 65q-94 49 -134 130q-30 61 -30 130q0 22 3 45q16 103 93 179t192.5 114.5t252.5 38.5q97 0 162.5 -21.5t124.5 -62.5 q175 66 321 125l-34 -231l-183 -29q8 -47 8 -82q0 -17 -2 -31q-10 -68 -49.5 -130t-103 -111.5t-158.5 -79t-207 -29.5q-52 0 -102 4q-100 -5 -107 -43q-3 -23 34.5 -31.5t137.5 -15.5q101 -5 213 -12q187 -13 269 -94q65 -65 65 -160q0 -24 -4 -49q-22 -156 -179 -249 t-421 -93q-272 0 -407 71q-119 63 -119 162q0 13 2 27zM246 -55q-1 -7 -1 -14q0 -57 66 -83q74 -30 238 -30q119 0 173.5 29t63.5 90q1 7 1 15q0 39 -29 64q-34 29 -111 33l-229 17h-10q-61 0 -106 -34q-50 -36 -56 -87zM446 735q-2 -17 -2 -32q0 -58 32 -95q42 -47 126 -47 q85 0 139 46.5t66 127.5q3 18 3 35q0 58 -33 98q-42 50 -122 50q-83 0 -140 -51.5t-69 -131.5z" />
<glyph unicode="h" horiz-adv-x="1206" d="M57 0l228 1522h293l-89 -602q116 145 316 145q150 0 240 -93q73 -75 73 -186q0 -26 -4 -53l-108 -733h-297l102 690q2 12 2 24q-1 48 -35 80q-42 40 -114 40q-75 0 -137 -41t-72 -111l-101 -682h-297z" />
<glyph unicode="i" horiz-adv-x="575" d="M63 0l158 1059h295l-156 -1059h-297zM244 1229l41 270h301l-41 -270h-301z" />
<glyph unicode="j" horiz-adv-x="600" d="M-152 -311l31 200l80 9q62 9 89.5 34t35.5 78l154 1049h297l-158 -1051q-25 -176 -122.5 -262t-279.5 -86q-47 0 -79 7t-40 15zM260 1229l41 270h301l-41 -270h-301z" />
<glyph unicode="k" horiz-adv-x="1179" d="M57 0l226 1522h295l-134 -901l439 438h317l-438 -422l293 -637h-295l-207 457l-154 -150l-47 -307h-295z" />
<glyph unicode="l" horiz-adv-x="641" d="M92 231.5q2 28.5 8 65.5l181 1225h290l-176 -1188q-2 -18 -2 -33q1 -41 15 -65q20 -34 84 -41l45 -2l-27 -187q-70 -24 -125 -24q-64 0 -113.5 10t-81.5 25.5t-53 41t-31 50.5t-13 59.5t-1 63z" />
<glyph unicode="m" horiz-adv-x="1806" d="M57 0l156 1059h291l-21 -137q132 157 346 157q55 0 106 -15t96 -51t65 -89q62 71 154 113t182 42q61 0 115 -20.5t98 -60.5q43 -40 63 -110q11 -41 11 -89q0 -34 -5 -72l-106 -727h-297l104 694q2 19 2 35q-1 59 -31 91q-40 40 -106 40q-177 0 -203 -192l-100 -668h-293 l107 721q2 12 2 22q-1 48 -37 79q-44 38 -105 38q-67 0 -125 -39t-69 -110l-105 -711h-295z" />
<glyph unicode="n" horiz-adv-x="1206" d="M57 0l158 1059h291l-21 -137q65 70 136.5 108.5t183.5 38.5q145 0 237 -101q73 -80 73 -197q0 -31 -5 -64l-104 -707h-297l100 670q3 17 3 32q0 54 -33 88q-42 44 -113 44q-76 0 -138.5 -40t-72.5 -108l-103 -686h-295z" />
<glyph unicode="o" horiz-adv-x="1138" d="M70 522q38 250 198.5 403.5t384.5 153.5q227 0 339 -155q84 -116 84 -283q0 -55 -9 -117q-36 -242 -193.5 -393t-386.5 -151q-227 0 -339 150q-86 115 -86 284q0 51 8 108zM354 411q4 -59 19.5 -105t54 -74.5t96.5 -28.5q57 0 103 28t76 76t49 104t28 121q9 47 9 92 q0 15 -1 30q-4 59 -19.5 105t-53.5 73.5t-94 27.5q-58 0 -104.5 -27t-77 -74.5t-50 -104t-29.5 -122.5q-8 -44 -8 -86q1 -18 2 -35z" />
<glyph unicode="p" horiz-adv-x="1214" d="M10 -330l207 1389h295l-20 -133q139 153 321 153q86 0 154.5 -33t116 -99.5t63.5 -168.5q8 -47 8 -103q0 -63 -10 -136q-21 -140 -73 -249t-125 -175.5t-157.5 -100.5t-175.5 -34q-83 0 -142 38.5t-95 135.5l-70 -484h-297zM412 377q8 -80 58 -131t120 -51q99 0 176.5 89 t99.5 251q8 49 8 91q0 91 -36 150q-52 86 -146 86q-85 0 -157.5 -67.5t-83.5 -145.5z" />
<glyph unicode="q" horiz-adv-x="1204" d="M68 290q-7 46 -7 101q0 68 11 148q19 134 67 238.5t115 169.5t146 98.5t165 33.5q156 0 279 -127l16 107h297l-207 -1389h-295l68 459q-138 -149 -309 -149q-90 0 -161 33t-120 102t-65 175zM373 541q-8 -56 -8 -104q0 -95 31 -159q48 -98 145 -98q91 0 153 86t82 221 l17 111q6 40 6 75q0 77 -29 129q-42 75 -131 75q-96 0 -169 -85t-97 -251z" />
<glyph unicode="r" horiz-adv-x="817" d="M57 0l158 1059h283l-35 -250q57 119 159.5 194.5t239.5 75.5l-43 -282q-32 2 -62 2q-286 0 -317 -219l-86 -580h-297z" />
<glyph unicode="s" horiz-adv-x="1058" d="M49 334h258q4 -55 35.5 -90t68.5 -46.5t78 -11.5q84 0 139 28t62 81q1 7 1 14q1 33 -23 55q-28 26 -97 39l-170 39q-264 57 -264 254q0 23 4 47q22 152 153.5 244t332.5 92q191 0 293 -88q82 -71 82 -182q0 -27 -5 -57h-245q-3 59 -47.5 90.5t-116.5 31.5 q-46 0 -83.5 -9.5t-66.5 -34.5t-35 -64q0 -4 -1 -8q0 -34 31 -56q34 -24 118 -43l162 -36q63 -17 109.5 -46t70.5 -61t39 -70q15 -36 14 -69q0 -28 -2 -66q-15 -105 -85 -181.5t-172.5 -113t-225.5 -36.5q-83 0 -155.5 21t-131 62.5t-92 111t-33.5 159.5z" />
<glyph unicode="t" horiz-adv-x="825" d="M86 852l31 207h176l94 319h240l-47 -317h227l-31 -209h-227l-82 -561q-2 -15 -2 -28q-1 -33 13 -46q18 -18 67 -18h139l-29 -185q-63 -26 -184 -26q-100 0 -166.5 21t-96.5 59q-32 38 -42 90q-5 24 -4 51q0 31 6 65l86 578h-168z" />
<glyph unicode="u" horiz-adv-x="1202" d="M98 328l111 733h295l-105 -696q-2 -16 -2 -31q-1 -60 35 -94q44 -43 119 -43q78 0 135.5 46.5t69.5 127.5l102 690h297l-162 -1061h-223l-2 211q-24 -66 -64 -113.5t-87.5 -71.5t-93.5 -35t-93 -11q-66 1 -128 23t-113 63q-51 42 -77 110q-18 47 -18 100q0 25 4 52z" />
<glyph unicode="v" horiz-adv-x="1044" d="M102 1059h269l123 -674h6l319 674h271l-545 -1059h-213z" />
<glyph unicode="w" horiz-adv-x="1576" d="M106 1059h263l96 -658h8l285 658h209l92 -658h8l285 658h266l-496 -1059h-233l-94 641l-285 -641h-227z" />
<glyph unicode="x" horiz-adv-x="1175" d="M-39 0l477 551l-284 508h307l170 -297l252 297h309l-438 -508l311 -551h-307l-193 344l-295 -344h-309z" />
<glyph unicode="y" horiz-adv-x="1130" d="M-31 -301l27 190l102 -4q16 -1 31 -1q32 0 59 4q41 7 63 17.5t40 28.5t23 27.5t12 24.5l28 59l-252 1014h293l142 -690l348 690h289l-572 -1065q-56 -99 -110 -165.5t-109 -102.5t-107.5 -50t-117.5 -14q-63 0 -110 9t-63 19z" />
<glyph unicode="z" horiz-adv-x="1069" d="M-4 0l24 154l635 716h-485l29 189h856l-25 -152l-637 -714h539l-29 -193h-907z" />
<glyph unicode="{" horiz-adv-x="780" d="M23 508l22 151q117 0 177.5 46.5t72.5 138.5l59 395q18 113 119 177.5t223 64.5h148l-25 -170h-90q-76 0 -103 -26.5t-34 -78.5l-60 -407q-19 -98 -88 -149t-153 -60q-12 -2 -13 -6.5t11 -5.5q38 -3 70 -15t60.5 -35.5t41.5 -67t6 -102.5l-61 -411q-8 -59 15 -83t93 -24 h86l-25 -170h-141q-82 0 -147.5 26.5t-103 84t-25.5 135.5l61 416q13 77 -35.5 126.5t-160.5 49.5z" />
<glyph unicode="|" horiz-adv-x="557" d="M45 -330l299 2022h215l-299 -2022h-215z" />
<glyph unicode="}" horiz-adv-x="778" d="M-92 -330l26 170h89q41 0 67.5 7.5t41 23.5t20.5 32t10 42l59 407q17 98 86.5 149t155.5 60q11 2 12 6q1 3 -4 5q-3 1 -6 1q-38 3 -70 15t-60.5 35.5t-41.5 67.5t-6 104l59 409q9 59 -13.5 83t-92.5 24h-88l26 170h141q81 0 146.5 -26.5t103 -84t25.5 -135.5l-62 -416 q-11 -77 38 -126.5t161 -49.5l-22 -151q-227 0 -252 -185l-58 -395q-18 -113 -120 -177.5t-224 -64.5h-147z" />
<glyph unicode="~" horiz-adv-x="1228" d="M141 719q101 91 178.5 136.5t167.5 45.5q54 0 104 -19.5t83 -43t76.5 -43t85.5 -19.5q123 0 233 146l64 -150q-62 -88 -147.5 -136t-174.5 -48q-54 0 -104.5 20t-83 43.5t-78 43.5t-90.5 20q-47 0 -95 -24t-78.5 -50t-76.5 -72z" />
<glyph unicode="&#xa1;" horiz-adv-x="571" d="M-14 -330l211 930h184l-45 -930h-350zM145 739l45 320h324l-45 -320h-324z" />
<glyph unicode="&#xa2;" horiz-adv-x="1179" d="M131 752q34 216 170.5 363t331.5 181l22 185h195l-23 -181q158 -26 239 -134.5t69 -264.5l-261 -2q-3 78 -43.5 129t-119.5 51q-110 0 -188.5 -85.5t-102.5 -237.5q-23 -155 29.5 -245.5t162.5 -90.5q80 0 137.5 54t81.5 124h252q-29 -134 -125.5 -233.5t-234.5 -137.5 l-27 -227h-194l24 209q-210 14 -321 164t-74 379z" />
<glyph unicode="&#xa3;" horiz-adv-x="1298" d="M-33 0l37 248h70q76 0 128.5 51.5t69.5 159.5q12 81 15 235h-203l25 166h170l8 184q1 107 46 195.5t118 144.5t164 86.5t188 30.5q163 0 275 -77.5t149 -215.5l-269 -80q-23 73 -54.5 104.5t-90.5 31.5q-71 0 -121.5 -46.5t-62.5 -127.5q-11 -80 -2 -230h291l-25 -166 h-268q-9 -133 -37 -215q-21 -83 -56.5 -132.5t-93.5 -96.5h264q94 0 148 36t100 128l240 -56q-147 -358 -504 -358h-719z" />
<glyph unicode="&#xa4;" horiz-adv-x="1165" d="M53 369l152 133q-52 113 -33 241q18 126 92 226q12 19 2 32l-98 121l141 129l113 -137q123 76 246 76t219 -68q13 -6 24 2l127 115l105 -129l-142 -123q55 -116 35 -242q-16 -132 -100 -233q-4 -12 -2 -14l100 -117l-143 -129l-100 125q-129 -76 -248 -76q-122 0 -217 64 q-16 13 -31 -5l-139 -120zM367 745q-15 -100 43 -173.5t159 -73.5q100 0 180.5 73.5t94.5 173.5q15 99 -43 173.5t-160 74.5q-99 0 -179.5 -74.5t-94.5 -173.5z" />
<glyph unicode="&#xa5;" horiz-adv-x="1314" d="M121 1481h385l235 -592l410 592h309l-571 -768h260l-25 -162h-297l-22 -160h295l-25 -162h-295l-35 -229h-333l32 229h-297l25 162h297l23 158h-297l24 164h242z" />
<glyph unicode="&#xa6;" horiz-adv-x="557" d="M45 -330l123 836h215l-123 -836h-215zM221 856l123 836h215l-123 -836h-215z" />
<glyph unicode="&#xa7;" horiz-adv-x="1028" d="M-6 80l194 90q82 -145 250 -145q81 0 133.5 28t59.5 82q6 42 -22 76.5t-109 69.5l-144 59q-153 62 -213 137t-43 189q13 92 70 161t145 109q-79 53 -106 113.5t-16 136.5q21 137 143.5 226t306.5 89q145 0 247.5 -65.5t135.5 -159.5l-192 -90q-45 62 -93.5 97.5 t-117.5 35.5q-68 0 -112 -28.5t-52 -76.5q-8 -67 94 -112l145 -62q159 -67 221 -145.5t44 -196.5q-24 -168 -199 -266q83 -53 115 -113t20 -145q-24 -150 -150.5 -242t-330.5 -92q-166 0 -278.5 69t-145.5 171zM346 709q-6 -46 20.5 -75t114.5 -65l90 -43q57 -6 100 34.5 t46 98.5q2 45 -27 80t-102 66l-82 35q-65 -4 -108.5 -41.5t-51.5 -89.5z" />
<glyph unicode="&#xa8;" horiz-adv-x="737" d="M100 1229l41 270h301l-41 -270h-301zM530 1229l41 270h301l-41 -270h-301z" />
<glyph unicode="&#xa9;" horiz-adv-x="1656" d="M113 741q22 154 101.5 294.5t194 242.5t260.5 162.5t296 60.5q200 0 355 -102t228 -277t43 -381q-31 -208 -156.5 -383.5t-310.5 -276.5t-385 -101q-150 0 -278 59.5t-211.5 161.5t-121 243t-15.5 297zM293 741q-41 -269 90 -431.5t381 -162.5q246 0 427 163t220 431 q39 266 -93.5 431t-377.5 165q-249 0 -428 -164.5t-219 -431.5zM461 743q27 189 157 307.5t302 118.5q71 0 128 -23.5t93.5 -62.5t58 -84.5t29.5 -95.5l-207 -22q-13 61 -38.5 96t-80.5 35q-76 0 -130.5 -67.5t-74.5 -196.5q-20 -134 18 -202.5t122 -68.5q65 0 112.5 37 t89.5 107l142 -39q-19 -42 -50.5 -84t-79 -84t-115 -68.5t-142.5 -26.5q-173 0 -267.5 118t-66.5 306z" />
<glyph unicode="&#xaa;" horiz-adv-x="770" d="M137 1001q14 100 108 162t244 66l74 6l6 43q7 52 -18.5 75t-67.5 23q-88 0 -137 -86l-149 35q50 89 121 131.5t188 42.5q141 -1 194 -54.5t39 -158.5q-17 -121 -34 -256q-15 -86 -15 -143l4 -62h-174l-6 72q-61 -45 -104.5 -64.5t-98.5 -19.5q-95 0 -140.5 51t-33.5 137z M313 1014q-5 -36 17.5 -58t66.5 -22q56 0 99 37q37 33 39 59l14 100l-62 -4q-75 -3 -120.5 -32.5t-53.5 -79.5z" />
<glyph unicode="&#xab;" horiz-adv-x="1003" d="M102 514l291 399h158l-219 -399l102 -383h-155zM479 514l295 399h156l-219 -399l104 -383h-158z" />
<glyph unicode="&#xac;" horiz-adv-x="1183" d="M133 635l35 219h942l-33 -217l-47 -309h-239l47 309z" />
<glyph unicode="&#xad;" horiz-adv-x="798" d="M104 418l31 217l543 2l-31 -219h-543z" />
<glyph unicode="&#xae;" horiz-adv-x="1103" d="M152 1024q31 199 186 338t348 139q94 0 173.5 -37.5t132 -101.5t75.5 -152.5t8 -185.5q-28 -198 -183 -336.5t-347 -138.5q-193 0 -307.5 138.5t-85.5 336.5zM281 1024q-25 -163 51.5 -259.5t230.5 -96.5q151 0 256.5 97t130.5 259q23 162 -53.5 260t-226.5 98 q-155 0 -260.5 -97.5t-128.5 -260.5zM393 786l70 471h215q84 0 125.5 -32t32.5 -92q-13 -89 -111 -127l57 -220h-127l-39 205h-77l-29 -205h-117zM551 1075h96q59 0 68 49q3 24 -12.5 38t-47.5 14h-90z" />
<glyph unicode="&#xaf;" horiz-adv-x="792" d="M141 1278l29 190h704l-28 -190h-705z" />
<glyph unicode="&#xb0;" horiz-adv-x="952" d="M254 1368q23 151 131.5 247.5t253.5 96.5q143 0 224 -97t59 -247q-23 -150 -132.5 -246t-252.5 -96q-146 0 -226 96t-57 246zM424 1366q-9 -78 27 -126t108 -48t122.5 48.5t59.5 125.5q12 76 -24 124t-109 48q-71 0 -122 -48t-62 -124z" />
<glyph unicode="&#xb1;" horiz-adv-x="1187" d="M55 74l33 215l942 2l-33 -217h-942zM164 811l33 217h364l55 375h218l-58 -375h365l-33 -217h-363l-57 -375h-213l55 375h-366z" />
<glyph unicode="&#xb2;" horiz-adv-x="776" d="M92 786l14 93l9 49q10 67 43.5 121.5t81 91t102 66.5t109 55.5t100 51t76.5 59.5t37 75q8 56 -24.5 91.5t-96.5 35.5q-69 0 -121.5 -42t-75.5 -122h-178q23 141 128 230.5t275 89.5q152 0 230 -77t59 -204q-10 -67 -43.5 -120.5t-79 -88t-99 -62.5t-106 -51t-96.5 -46.5 t-74 -55.5t-36 -72l-2 -10h460l-24 -158h-668z" />
<glyph unicode="&#xb3;" horiz-adv-x="813" d="M129 1075h176q1 -76 41.5 -113.5t108.5 -37.5q82 0 134.5 36.5t61.5 96.5q9 59 -34 94t-119 37l-84 4l20 149l80 5q72 3 121.5 38t56.5 89q7 50 -32.5 81t-108.5 31q-70 0 -120.5 -36.5t-68.5 -116.5h-176q21 145 129 222t260 77q159 0 246.5 -63.5t69.5 -186.5 q-22 -146 -195 -205q77 -24 121 -80.5t31 -144.5q-21 -132 -138.5 -205.5t-279.5 -71.5q-164 0 -242.5 79.5t-58.5 221.5z" />
<glyph unicode="&#xb4;" horiz-adv-x="634" d="M135 1292l537 211l35 -194l-549 -144z" />
<glyph unicode="&#xb5;" horiz-adv-x="1228" d="M6 -338l209 1423h305l-100 -675q-9 -62 31 -103t110 -41q63 0 120.5 38t98.5 104l99 677h307l-166 -1085h-295l25 168q-114 -105 -213 -119q-100 -17 -168 23l-60 -410h-303z" />
<glyph unicode="&#xb6;" horiz-adv-x="1204" d="M143 1042q28 187 169 313t358 126h547l-25 -170h-125l-219 -1481h-180l219 1481h-115l-221 -1481h-180l114 782q-173 13 -271.5 127t-70.5 303z" />
<glyph unicode="&#xb7;" horiz-adv-x="528" d="M113 598l45 295h299l-45 -295h-299z" />
<glyph unicode="&#xb8;" horiz-adv-x="548" d="M-98 -381l57 102q66 -51 145 -51q46 0 74.5 16.5t34.5 47.5q5 41 -31 62t-127 22q-13 0 -16 3t4 15l98 174h129l-61 -121q71 -1 114.5 -26t56.5 -58.5t9 -74.5q-12 -75 -88.5 -120.5t-175.5 -45.5q-141 0 -223 55z" />
<glyph unicode="&#xb9;" horiz-adv-x="626" d="M145 1477l15 104q214 0 246 129h122l-139 -932h-186l102 699h-160z" />
<glyph unicode="&#xba;" horiz-adv-x="759" d="M158 1155q23 155 122.5 250.5t235.5 95.5q139 0 210.5 -96.5t49.5 -249.5q-20 -150 -119 -245t-239 -95q-138 0 -209 94.5t-51 245.5zM342 1159q-30 -215 94 -215q128 0 158 215q31 213 -96 213q-125 0 -156 -213z" />
<glyph unicode="&#xbb;" horiz-adv-x="1003" d="M59 131l213 383l-100 399h158l174 -399l-291 -383h-154zM436 131l217 383l-102 399h158l174 -399l-289 -383h-158z" />
<glyph unicode="&#xbc;" horiz-adv-x="1984" d="M115 1264l14 104q214 0 246 129h123l-140 -932h-186l102 699h-159zM371 -8l204 473l863 1032l-207 -471zM1128 207l25 153l496 572h182l-84 -567h139l-24 -158h-140l-30 -207h-179l31 207h-416zM1325 365h244l49 340z" />
<glyph unicode="&#xbd;" horiz-adv-x="1918" d="M115 1264l14 104q214 0 246 129h123l-140 -932h-186l102 699h-159zM371 -8l204 473l863 1032l-207 -471zM1122 0l15 92l8 49q10 67 43.5 121.5t81 91t102 67t109 56t100 51t76.5 59.5t37 75q8 56 -24.5 91t-96.5 35q-70 0 -122 -41.5t-75 -121.5h-178q23 140 128.5 229.5 t275.5 89.5q152 0 229.5 -76.5t58.5 -203.5q-10 -67 -43.5 -120.5t-79 -88t-99 -62.5t-106 -51t-96.5 -46.5t-74 -55.5t-36 -72l-2 -10h461l-25 -158h-668z" />
<glyph unicode="&#xbe;" horiz-adv-x="2170" d="M98 860h176q1 -76 41.5 -113.5t108.5 -37.5q82 0 135 36.5t62 96.5q9 59 -34 94t-120 37l-84 4l20 149l80 4q72 3 122 38t57 89q7 50 -33.5 81.5t-108.5 31.5q-154 0 -188 -153h-176q21 145 129 222t260 77q159 0 246 -63.5t69 -186.5q-22 -147 -194 -205 q77 -24 120.5 -80.5t30.5 -144.5q-21 -132 -138.5 -205.5t-279.5 -71.5q-164 0 -242.5 79.5t-58.5 221.5zM557 -8l205 473l862 1032l-207 -471zM1313 207l24 153l496 572h182l-84 -567h140l-25 -158h-139l-31 -207h-178l31 207h-416zM1509 365h244l49 340z" />
<glyph unicode="&#xbf;" horiz-adv-x="1093" d="M-6 0q10 67 39 123t68 95t84.5 73.5t91 67t84 66.5t66 81t34.5 102h241q-10 -69 -36 -128.5t-61 -102t-75 -79.5t-80 -69.5t-73 -63.5t-56.5 -69t-29.5 -80q-9 -68 38 -110.5t126 -42.5q80 0 160 52t122 134l244 -61q-87 -163 -230 -250.5t-327 -87.5q-228 0 -339.5 98.5 t-90.5 251.5zM438 739l43 320h326l-45 -320h-324z" />
<glyph unicode="&#xc0;" d="M-25 0l736 1481h309l295 -1481h-295l-64 344h-516l-168 -344h-297zM545 604h379l-101 588zM604 1731l96 194l474 -211l-64 -127z" />
<glyph unicode="&#xc1;" d="M-25 0l736 1481h309l295 -1481h-295l-64 344h-516l-168 -344h-297zM545 604h379l-101 588zM616 1714l537 211l35 -194l-549 -144z" />
<glyph unicode="&#xc2;" d="M-25 0l736 1481h309l295 -1481h-295l-64 344h-516l-168 -344h-297zM477 1640l303 277h203l217 -277h-231l-107 154l-168 -154h-217zM545 604h379l-101 588z" />
<glyph unicode="&#xc3;" d="M-25 0l736 1481h309l295 -1481h-295l-64 344h-516l-168 -344h-297zM545 604h379l-101 588zM575 1812q52 46 98 70.5t109 24.5q58 0 150.5 -32t136.5 -32q76 0 174 72l14 -164q-99 -74 -215 -74q-57 0 -141.5 30t-134.5 30q-48 0 -84 -15.5t-82 -52.5z" />
<glyph unicode="&#xc4;" d="M-25 0l736 1481h309l295 -1481h-295l-64 344h-516l-168 -344h-297zM520 1647l41 270h301l-41 -270h-301zM545 604h379l-101 588zM950 1647l41 270h301l-41 -270h-301z" />
<glyph unicode="&#xc5;" d="M-25 0l736 1481h309l295 -1481h-295l-64 344h-516l-168 -344h-297zM545 604h379l-101 588zM698 1812q13 89 87 152.5t163 63.5q91 0 145 -64.5t40 -155.5q-13 -94 -86.5 -158.5t-163.5 -64.5q-92 0 -145 65t-40 162zM811 1806q-6 -41 20 -72.5t66 -31.5q41 0 75 31t40 73 q6 43 -18.5 72t-65.5 29q-40 0 -75 -29.5t-42 -71.5z" />
<glyph unicode="&#xc6;" horiz-adv-x="2095" d="M-74 0l987 1481h1182l-37 -248h-680l-55 -365h463l-37 -245h-461l-55 -373h700l-37 -250h-1038l51 346h-463l-223 -346h-297zM596 604h352l101 680z" />
<glyph unicode="&#xc7;" horiz-adv-x="1449" d="M139 752q51 346 255.5 547.5t506.5 201.5q161 0 281 -65t180.5 -178.5t54.5 -256.5l-309 -4q-3 121 -67 189.5t-187 68.5q-317 0 -391 -507q-39 -264 25.5 -393.5t220.5 -129.5q111 0 197 76t126 197l309 -6q-29 -104 -76 -188.5t-118 -155.5t-173.5 -114t-230.5 -52 l-47 -93q103 -1 145.5 -48t35.5 -111q-12 -75 -89 -120.5t-176 -45.5q-142 0 -221 55l55 102q66 -51 146 -51q96 0 108 64q5 41 -30.5 62t-126.5 22q-14 0 -17 3t4 15l82 146q-177 17 -295 118t-163.5 269t-14.5 383z" />
<glyph unicode="&#xc8;" horiz-adv-x="1300" d="M92 0l219 1481h992l-39 -252h-693l-53 -359h600l-37 -247h-602l-53 -367l707 -2l-41 -254h-1000zM524 1731l97 194l473 -211l-64 -127z" />
<glyph unicode="&#xc9;" horiz-adv-x="1300" d="M92 0l219 1481h992l-39 -252h-693l-53 -359h600l-37 -247h-602l-53 -367l707 -2l-41 -254h-1000zM537 1714l536 211l35 -194l-549 -144z" />
<glyph unicode="&#xca;" horiz-adv-x="1300" d="M92 0l219 1481h992l-39 -252h-693l-53 -359h600l-37 -247h-602l-53 -367l707 -2l-41 -254h-1000zM446 1640l304 277h202l217 -277h-231l-107 154l-167 -154h-218z" />
<glyph unicode="&#xcb;" horiz-adv-x="1300" d="M92 0l219 1481h992l-39 -252h-693l-53 -359h600l-37 -247h-602l-53 -367l707 -2l-41 -254h-1000zM442 1647l41 270h301l-41 -270h-301zM872 1647l41 270h301l-40 -270h-302z" />
<glyph unicode="&#xcc;" horiz-adv-x="634" d="M92 0l217 1481h297l-217 -1481h-297zM199 1731l96 194l473 -211l-63 -127z" />
<glyph unicode="&#xcd;" horiz-adv-x="634" d="M92 0l217 1481h297l-217 -1481h-297zM211 1714l537 211l34 -194l-549 -144z" />
<glyph unicode="&#xce;" horiz-adv-x="634" d="M92 0l217 1481h297l-217 -1481h-297zM121 1640l303 277h203l217 -277h-232l-106 154l-168 -154h-217z" />
<glyph unicode="&#xcf;" horiz-adv-x="634" d="M92 0l217 1481h297l-217 -1481h-297zM115 1647l41 270h301l-41 -270h-301zM545 1647l41 270h301l-41 -270h-301z" />
<glyph unicode="&#xd0;" horiz-adv-x="1562" d="M88 623l29 219h213l96 639q311 0 432 -2q380 -9 534 -198.5t103 -532.5q-52 -355 -270 -551.5t-596 -196.5h-424l92 623h-209zM539 242h133q94 0 175.5 27.5t152 86t119.5 158.5t69 236q69 489 -365 489h-137l-59 -397h286l-28 -219h-291z" />
<glyph unicode="&#xd1;" horiz-adv-x="1581" d="M92 0l219 1481h295l506 -981l143 981h297l-219 -1481h-266l-528 1018l-150 -1018h-297zM641 1812q52 46 98 70.5t109 24.5q58 0 150.5 -32t136.5 -32q76 0 174 72l14 -164q-99 -74 -215 -74q-57 0 -142 30t-135 30q-48 0 -83 -15.5t-82 -52.5z" />
<glyph unicode="&#xd2;" horiz-adv-x="1542" d="M137 735q52 354 263 560t515 206q302 0 450.5 -205.5t96.5 -558.5q-52 -351 -260.5 -554t-511.5 -203q-309 0 -457 202t-96 553zM459 733q-37 -261 34.5 -384.5t233.5 -123.5t269 123t145 385q38 268 -32 395t-230 127q-162 0 -271 -127.5t-149 -394.5zM637 1731l96 194 l473 -211l-63 -127z" />
<glyph unicode="&#xd3;" horiz-adv-x="1542" d="M137 735q52 354 263 560t515 206q302 0 450.5 -205.5t96.5 -558.5q-52 -351 -260.5 -554t-511.5 -203q-309 0 -457 202t-96 553zM459 733q-37 -261 34.5 -384.5t233.5 -123.5t269 123t145 385q38 268 -32 395t-230 127q-162 0 -271 -127.5t-149 -394.5zM649 1714l537 211 l35 -194l-549 -144z" />
<glyph unicode="&#xd4;" horiz-adv-x="1542" d="M137 735q52 354 263 560t515 206q302 0 450.5 -205.5t96.5 -558.5q-52 -351 -260.5 -554t-511.5 -203q-309 0 -457 202t-96 553zM459 733q-37 -261 34.5 -384.5t233.5 -123.5t269 123t145 385q38 268 -32 395t-230 127q-162 0 -271 -127.5t-149 -394.5zM559 1640l303 277 h203l217 -277h-231l-107 154l-168 -154h-217z" />
<glyph unicode="&#xd5;" horiz-adv-x="1542" d="M137 735q52 354 263 560t515 206q302 0 450.5 -205.5t96.5 -558.5q-52 -351 -260.5 -554t-511.5 -203q-309 0 -457 202t-96 553zM459 733q-37 -261 34.5 -384.5t233.5 -123.5t269 123t145 385q38 268 -32 395t-230 127q-162 0 -271 -127.5t-149 -394.5zM608 1812 q52 46 98 70.5t109 24.5q58 0 150.5 -32t136.5 -32q76 0 174 72l14 -164q-99 -74 -215 -74q-57 0 -141.5 30t-134.5 30q-48 0 -84 -15.5t-82 -52.5z" />
<glyph unicode="&#xd6;" horiz-adv-x="1542" d="M137 735q52 354 263 560t515 206q302 0 450.5 -205.5t96.5 -558.5q-52 -351 -260.5 -554t-511.5 -203q-309 0 -457 202t-96 553zM459 733q-37 -261 34.5 -384.5t233.5 -123.5t269 123t145 385q38 268 -32 395t-230 127q-162 0 -271 -127.5t-149 -394.5zM555 1647l41 270 h301l-41 -270h-301zM985 1647l41 270h301l-41 -270h-301z" />
<glyph unicode="&#xd7;" horiz-adv-x="1161" d="M106 430l353 313l-260 318l172 153l260 -315l356 318l129 -154l-356 -318l260 -315l-176 -156l-258 316l-355 -316z" />
<glyph unicode="&#xd8;" horiz-adv-x="1556" d="M-16 106l190 177q-77 187 -37 452q35 235 142 408.5t270.5 265.5t363.5 92q269 0 418 -164l187 170l108 -133l-201 -186q77 -186 37 -451q-51 -350 -259.5 -553.5t-512.5 -203.5q-268 0 -416 157l-180 -166zM485 551l609 579q-51 134 -215 134q-137 0 -225 -99t-134 -305 q-35 -155 -35 -309zM508 340q57 -119 219 -119q131 0 215.5 88.5t126.5 274.5q40 157 43 334z" />
<glyph unicode="&#xd9;" horiz-adv-x="1472" d="M166 325.5q-17 109.5 6 247.5l133 908h301l-137 -930q-24 -160 38.5 -239t192.5 -79q128 0 215 79.5t111 238.5l135 930h299l-135 -916q-20 -139 -67 -244t-126 -183t-197 -118t-273 -40q-156 0 -263 41t-161.5 118t-71.5 186.5zM623 1731l96 194l473 -211l-64 -127z" />
<glyph unicode="&#xda;" horiz-adv-x="1472" d="M166 325.5q-17 109.5 6 247.5l133 908h301l-137 -930q-24 -160 38.5 -239t192.5 -79q128 0 215 79.5t111 238.5l135 930h299l-135 -916q-20 -139 -67 -244t-126 -183t-197 -118t-273 -40q-156 0 -263 41t-161.5 118t-71.5 186.5zM635 1714l536 211l35 -194l-549 -144z " />
<glyph unicode="&#xdb;" horiz-adv-x="1472" d="M166 325.5q-17 109.5 6 247.5l133 908h301l-137 -930q-24 -160 38.5 -239t192.5 -79q128 0 215 79.5t111 238.5l135 930h299l-135 -916q-20 -139 -67 -244t-126 -183t-197 -118t-273 -40q-156 0 -263 41t-161.5 118t-71.5 186.5zM543 1640l303 277h203l217 -277h-232 l-106 154l-168 -154h-217z" />
<glyph unicode="&#xdc;" horiz-adv-x="1472" d="M166 325.5q-17 109.5 6 247.5l133 908h301l-137 -930q-24 -160 38.5 -239t192.5 -79q128 0 215 79.5t111 238.5l135 930h299l-135 -916q-20 -139 -67 -244t-126 -183t-197 -118t-273 -40q-156 0 -263 41t-161.5 118t-71.5 186.5zM539 1647l41 270h301l-41 -270h-301z M969 1647l41 270h301l-41 -270h-301z" />
<glyph unicode="&#xdd;" horiz-adv-x="1323" d="M147 1481h320l240 -600l411 600h324l-629 -858l-92 -623h-295l92 623zM532 1716l537 211l35 -194l-549 -144z" />
<glyph unicode="&#xde;" horiz-adv-x="1427" d="M92 0l219 1481h338l-43 -285h291q120 0 217 -27t166.5 -80.5t100 -139t14.5 -195.5q-30 -213 -191 -330t-399 -117h-330l-45 -307h-338zM510 553h285q106 0 175.5 54t82.5 151q14 95 -44 144.5t-167 49.5h-273z" />
<glyph unicode="&#xdf;" horiz-adv-x="1249" d="M102 0l113 805h-113l29 207h111q16 97 54.5 178.5t102.5 148.5t162 104.5t221 37.5q187 0 275 -81t67 -222q-14 -106 -81 -171.5t-205 -125.5q-35 -19 -47 -30t-15 -28q-3 -19 6.5 -28.5t40.5 -20.5q133 -66 183 -102q138 -101 140 -258q0 -34 -5 -70 q-26 -175 -148 -269.5t-303 -94.5q-150 0 -241 67l106 184q27 -20 41 -29t45.5 -19.5t65.5 -10.5q73 0 123 36.5t59 104.5q5 35 -3 60.5t-35 46.5t-49.5 33t-70.5 34q-88 42 -134 104.5t-34 162.5q11 72 51 125t107 100q7 5 33 26t34.5 28.5t28 26t27.5 31t16.5 31.5 t11.5 39q8 57 -25.5 91t-105.5 34q-88 0 -146.5 -58.5t-72.5 -158.5l-149 -1069h-271z" />
<glyph unicode="&#xe0;" horiz-adv-x="1124" d="M37 303q27 176 168.5 266t412.5 93l125 2l11 63q10 74 -28.5 113t-117.5 39q-67 -2 -128 -36t-91 -100h-246q33 160 171 248t337 88q227 0 319.5 -88t69.5 -246l-112 -745h-246l2 180q-68 -111 -150.5 -155.5t-195.5 -44.5q-153 0 -237.5 85.5t-63.5 237.5zM324 334 q-10 -73 30.5 -115.5t112.5 -42.5q78 0 148.5 54.5t82.5 123.5l23 156l-103 -2q-56 -1 -104 -10.5t-89.5 -29t-68 -53.5t-32.5 -81zM387 1309l96 194l473 -211l-63 -127z" />
<glyph unicode="&#xe1;" horiz-adv-x="1124" d="M37 303q27 176 168.5 266t412.5 93l125 2l11 63q10 74 -28.5 113t-117.5 39q-67 -2 -128 -36t-91 -100h-246q33 160 171 248t337 88q227 0 319.5 -88t69.5 -246l-112 -745h-246l2 180q-68 -111 -150.5 -155.5t-195.5 -44.5q-153 0 -237.5 85.5t-63.5 237.5zM324 334 q-10 -73 30.5 -115.5t112.5 -42.5q78 0 148.5 54.5t82.5 123.5l23 156l-103 -2q-56 -1 -104 -10.5t-89.5 -29t-68 -53.5t-32.5 -81zM399 1292l537 211l35 -194l-549 -144z" />
<glyph unicode="&#xe2;" horiz-adv-x="1124" d="M37 303q27 176 168.5 266t412.5 93l125 2l11 63q10 74 -28.5 113t-117.5 39q-67 -2 -128 -36t-91 -100h-246q33 160 171 248t337 88q227 0 319.5 -88t69.5 -246l-112 -745h-246l2 180q-68 -111 -150.5 -155.5t-195.5 -44.5q-153 0 -237.5 85.5t-63.5 237.5zM307 1219 l303 276h203l217 -276h-231l-107 153l-168 -153h-217zM324 334q-10 -73 30.5 -115.5t112.5 -42.5q78 0 148.5 54.5t82.5 123.5l23 156l-103 -2q-56 -1 -104 -10.5t-89.5 -29t-68 -53.5t-32.5 -81z" />
<glyph unicode="&#xe3;" horiz-adv-x="1124" d="M37 303q27 176 168.5 266t412.5 93l125 2l11 63q10 74 -28.5 113t-117.5 39q-67 -2 -128 -36t-91 -100h-246q33 160 171 248t337 88q227 0 319.5 -88t69.5 -246l-112 -745h-246l2 180q-68 -111 -150.5 -155.5t-195.5 -44.5q-153 0 -237.5 85.5t-63.5 237.5zM324 334 q-10 -73 30.5 -115.5t112.5 -42.5q78 0 148.5 54.5t82.5 123.5l23 156l-103 -2q-56 -1 -104 -10.5t-89.5 -29t-68 -53.5t-32.5 -81zM358 1391q51 46 97.5 70t109.5 24q58 0 150.5 -32t136.5 -32q76 0 174 72l14 -164q-99 -74 -215 -74q-57 0 -141.5 30t-134.5 30 q-48 0 -84 -15.5t-82 -52.5z" />
<glyph unicode="&#xe4;" horiz-adv-x="1124" d="M37 303q27 176 168.5 266t412.5 93l125 2l11 63q10 74 -28.5 113t-117.5 39q-67 -2 -128 -36t-91 -100h-246q33 160 171 248t337 88q227 0 319.5 -88t69.5 -246l-112 -745h-246l2 180q-68 -111 -150.5 -155.5t-195.5 -44.5q-153 0 -237.5 85.5t-63.5 237.5zM303 1225 l41 270h301l-41 -270h-301zM324 334q-10 -73 30.5 -115.5t112.5 -42.5q78 0 148.5 54.5t82.5 123.5l23 156l-103 -2q-56 -1 -104 -10.5t-89.5 -29t-68 -53.5t-32.5 -81zM733 1225l41 270h301l-41 -270h-301z" />
<glyph unicode="&#xe5;" horiz-adv-x="1124" d="M37 303q27 176 168.5 266t412.5 93l125 2l11 63q10 74 -28.5 113t-117.5 39q-67 -2 -128 -36t-91 -100h-246q33 160 171 248t337 88q227 0 319.5 -88t69.5 -246l-112 -745h-246l2 180q-68 -111 -150.5 -155.5t-195.5 -44.5q-153 0 -237.5 85.5t-63.5 237.5zM324 334 q-10 -73 30.5 -115.5t112.5 -42.5q78 0 148.5 54.5t82.5 123.5l23 156l-103 -2q-56 -1 -104 -10.5t-89.5 -29t-68 -53.5t-32.5 -81zM481 1391q13 89 87 152t163 63q90 0 144 -64.5t40 -155.5q-13 -94 -86 -158.5t-163 -64.5q-92 0 -145.5 65.5t-39.5 162.5zM594 1384 q-6 -41 20 -72.5t66 -31.5q41 0 75 31t40 73q6 43 -18.5 72t-65.5 29q-40 0 -75 -29.5t-42 -71.5z" />
<glyph unicode="&#xe6;" horiz-adv-x="1818" d="M35 281q24 160 173 255.5t413 110.5l133 8l8 70q11 80 -25 123t-119 43q-143 0 -235 -148l-244 60q83 141 203.5 208.5t314.5 67.5q259 -3 336 -129q144 129 334 129q224 0 340 -162t74 -444h-717q-19 -124 43.5 -206.5t169.5 -82.5q79 0 142.5 36.5t144.5 113.5l170 -82 q-114 -147 -237.5 -209.5t-289.5 -62.5q-238 0 -372 184q-8 11 -19 0q-98 -90 -204.5 -137t-247.5 -47q-159 0 -234.5 81.5t-54.5 219.5zM330 301q-9 -63 26.5 -99.5t110.5 -35.5q87 3 157.5 50t80.5 114l24 168l-108 -9q-113 -10 -196.5 -58.5t-94.5 -129.5zM1055 639 l420 -2q9 60 -4.5 117.5t-55.5 98t-104 40.5q-94 0 -166.5 -68t-89.5 -186z" />
<glyph unicode="&#xe7;" horiz-adv-x="1071" d="M70 524q37 246 198 400.5t381 154.5q188 0 287.5 -114t85.5 -291l-246 -2q-3 78 -41 129t-114 51q-105 0 -178.5 -85.5t-96.5 -238.5q-23 -155 27 -245t155 -90q75 0 129 54t78 124h238q-31 -156 -147.5 -262t-278.5 -125l-47 -95q71 -1 114.5 -26t56.5 -58.5t9 -74.5 q-12 -75 -88.5 -120.5t-175.5 -45.5q-142 0 -221 55l55 102q66 -51 145 -51q46 0 74.5 16.5t34.5 47.5q5 41 -31 62t-127 22q-14 0 -17 3t5 15l84 148q-188 25 -284 172t-64 368z" />
<glyph unicode="&#xe8;" horiz-adv-x="1120" d="M68 518q36 244 194 402.5t387 158.5q231 0 333.5 -146t66.5 -390l-13 -82h-686q-19 -123 28 -193.5t148 -70.5q157 0 228 139h264q-35 -111 -117.5 -193t-185.5 -122.5t-213 -40.5q-231 0 -350.5 146t-83.5 392zM377 639h411q14 102 -28.5 166.5t-141.5 64.5 q-94 0 -161 -69t-80 -162zM387 1309l96 194l473 -211l-63 -127z" />
<glyph unicode="&#xe9;" horiz-adv-x="1120" d="M68 518q36 244 194 402.5t387 158.5q231 0 333.5 -146t66.5 -390l-13 -82h-686q-19 -123 28 -193.5t148 -70.5q157 0 228 139h264q-35 -111 -117.5 -193t-185.5 -122.5t-213 -40.5q-231 0 -350.5 146t-83.5 392zM377 639h411q14 102 -28.5 166.5t-141.5 64.5 q-94 0 -161 -69t-80 -162zM399 1292l537 211l35 -194l-549 -144z" />
<glyph unicode="&#xea;" horiz-adv-x="1120" d="M68 518q36 244 194 402.5t387 158.5q231 0 333.5 -146t66.5 -390l-13 -82h-686q-19 -123 28 -193.5t148 -70.5q157 0 228 139h264q-35 -111 -117.5 -193t-185.5 -122.5t-213 -40.5q-231 0 -350.5 146t-83.5 392zM307 1219l303 276h203l217 -276h-231l-107 153l-168 -153 h-217zM377 639h411q14 102 -28.5 166.5t-141.5 64.5q-94 0 -161 -69t-80 -162z" />
<glyph unicode="&#xeb;" horiz-adv-x="1120" d="M68 518q36 244 194 402.5t387 158.5q231 0 333.5 -146t66.5 -390l-13 -82h-686q-19 -123 28 -193.5t148 -70.5q157 0 228 139h264q-35 -111 -117.5 -193t-185.5 -122.5t-213 -40.5q-231 0 -350.5 146t-83.5 392zM303 1225l41 270h301l-41 -270h-301zM377 639h411 q14 102 -28.5 166.5t-141.5 64.5q-94 0 -161 -69t-80 -162zM733 1225l41 270h301l-41 -270h-301z" />
<glyph unicode="&#xec;" horiz-adv-x="569" d="M61 0l158 1059h295l-158 -1059h-295zM109 1309l96 194l473 -211l-64 -127z" />
<glyph unicode="&#xed;" horiz-adv-x="569" d="M61 0l158 1059h295l-158 -1059h-295zM121 1292l536 211l35 -194l-549 -144z" />
<glyph unicode="&#xee;" horiz-adv-x="569" d="M31 1219l303 276h203l217 -276h-232l-106 153l-168 -153h-217zM61 0l158 1059h295l-158 -1059h-295z" />
<glyph unicode="&#xef;" horiz-adv-x="569" d="M25 1225l41 270h301l-41 -270h-301zM61 0l158 1059h295l-158 -1059h-295zM455 1225l41 270h301l-41 -270h-301z" />
<glyph unicode="&#xf0;" horiz-adv-x="1181" d="M66 504q35 233 203.5 383.5t389.5 150.5q69 0 99 -34q-44 112 -156 210l-274 -147l-45 94l225 119q-75 46 -189 90l181 133q140 -42 239 -100l201 104l37 -96l-141 -76q172 -138 242 -341.5t34 -446.5q-38 -258 -203.5 -412.5t-402.5 -154.5q-227 0 -349.5 148.5 t-90.5 375.5zM367 510q-23 -155 23 -242.5t149 -87.5q105 0 175.5 87t92.5 243q23 157 -21.5 245.5t-148.5 88.5q-103 0 -175 -89t-95 -245z" />
<glyph unicode="&#xf1;" horiz-adv-x="1206" d="M57 0l158 1059h291l-21 -137q65 70 136.5 108.5t183.5 38.5q145 0 237 -101t68 -261l-104 -707h-297l100 670q12 75 -30 119.5t-113 44.5q-76 0 -138.5 -40t-72.5 -108l-103 -686h-295zM403 1391q51 46 97.5 70t109.5 24q58 0 150.5 -32t136.5 -32q76 0 174 72l14 -164 q-99 -74 -215 -74q-57 0 -141.5 30t-134.5 30q-48 0 -84 -15.5t-82 -52.5z" />
<glyph unicode="&#xf2;" horiz-adv-x="1138" d="M70 522q38 250 198.5 403.5t384.5 153.5q228 0 339.5 -155t74.5 -400q-36 -242 -193.5 -393t-386.5 -151q-227 0 -339 149.5t-78 392.5zM353.5 411q4.5 -59 20 -105t54 -74.5t96.5 -28.5q57 0 103 28t76 76t49 104t28 121q12 63 8 122t-19.5 105t-53.5 73.5t-94 27.5 q-58 0 -104.5 -27t-77 -74.5t-50 -104t-29.5 -122.5q-11 -62 -6.5 -121zM389 1309l96 194l473 -211l-63 -127z" />
<glyph unicode="&#xf3;" horiz-adv-x="1138" d="M70 522q38 250 198.5 403.5t384.5 153.5q228 0 339.5 -155t74.5 -400q-36 -242 -193.5 -393t-386.5 -151q-227 0 -339 149.5t-78 392.5zM353.5 411q4.5 -59 20 -105t54 -74.5t96.5 -28.5q57 0 103 28t76 76t49 104t28 121q12 63 8 122t-19.5 105t-53.5 73.5t-94 27.5 q-58 0 -104.5 -27t-77 -74.5t-50 -104t-29.5 -122.5q-11 -62 -6.5 -121zM401 1292l537 211l35 -194l-549 -144z" />
<glyph unicode="&#xf4;" horiz-adv-x="1138" d="M70 522q38 250 198.5 403.5t384.5 153.5q228 0 339.5 -155t74.5 -400q-36 -242 -193.5 -393t-386.5 -151q-227 0 -339 149.5t-78 392.5zM309 1219l303 276h203l217 -276h-231l-107 153l-168 -153h-217zM353.5 411q4.5 -59 20 -105t54 -74.5t96.5 -28.5q57 0 103 28t76 76 t49 104t28 121q12 63 8 122t-19.5 105t-53.5 73.5t-94 27.5q-58 0 -104.5 -27t-77 -74.5t-50 -104t-29.5 -122.5q-11 -62 -6.5 -121z" />
<glyph unicode="&#xf5;" horiz-adv-x="1138" d="M70 522q38 250 198.5 403.5t384.5 153.5q228 0 339.5 -155t74.5 -400q-36 -242 -193.5 -393t-386.5 -151q-227 0 -339 149.5t-78 392.5zM353.5 411q4.5 -59 20 -105t54 -74.5t96.5 -28.5q57 0 103 28t76 76t49 104t28 121q12 63 8 122t-19.5 105t-53.5 73.5t-94 27.5 q-58 0 -104.5 -27t-77 -74.5t-50 -104t-29.5 -122.5q-11 -62 -6.5 -121zM360 1391q51 46 97.5 70t109.5 24q58 0 150.5 -32t136.5 -32q76 0 174 72l14 -164q-99 -74 -215 -74q-57 0 -141.5 30t-134.5 30q-48 0 -84 -15.5t-82 -52.5z" />
<glyph unicode="&#xf6;" horiz-adv-x="1138" d="M70 522q38 250 198.5 403.5t384.5 153.5q228 0 339.5 -155t74.5 -400q-36 -242 -193.5 -393t-386.5 -151q-227 0 -339 149.5t-78 392.5zM305 1225l41 270h301l-41 -270h-301zM353.5 411q4.5 -59 20 -105t54 -74.5t96.5 -28.5q57 0 103 28t76 76t49 104t28 121 q12 63 8 122t-19.5 105t-53.5 73.5t-94 27.5q-58 0 -104.5 -27t-77 -74.5t-50 -104t-29.5 -122.5q-11 -62 -6.5 -121zM735 1225l41 270h301l-41 -270h-301z" />
<glyph unicode="&#xf7;" horiz-adv-x="1181" d="M133 635l33 219h944l-33 -217zM387 193l45 299h305l-43 -299h-307zM508 999l45 299h307l-45 -299h-307z" />
<glyph unicode="&#xf8;" horiz-adv-x="1157" d="M-10 90l108 103q-66 135 -39 329q37 249 198 403t386 154q177 0 289 -98l96 90l96 -104l-106 -101q67 -137 39 -342q-37 -243 -195 -393.5t-387 -150.5q-179 0 -291 98l-96 -92zM342 424l395 373q-44 63 -129 63q-75 0 -131.5 -48.5t-85.5 -119t-41 -160.5 q-8 -49 -8 -108zM383 264q45 -61 129 -61q57 0 103 28t76 76t49 104t28 121q8 49 8 105z" />
<glyph unicode="&#xf9;" horiz-adv-x="1202" d="M98 328l111 733h295l-105 -696q-11 -82 33.5 -125t118.5 -43q78 0 135.5 46.5t69.5 127.5l102 690h297l-162 -1061h-223l-2 211q-24 -66 -64 -113.5t-87.5 -71.5t-93.5 -35t-93 -11q-66 1 -128 23t-113 63t-77 109.5t-14 152.5zM420 1309l96 194l473 -211l-63 -127z" />
<glyph unicode="&#xfa;" horiz-adv-x="1202" d="M98 328l111 733h295l-105 -696q-11 -82 33.5 -125t118.5 -43q78 0 135.5 46.5t69.5 127.5l102 690h297l-162 -1061h-223l-2 211q-24 -66 -64 -113.5t-87.5 -71.5t-93.5 -35t-93 -11q-66 1 -128 23t-113 63t-77 109.5t-14 152.5zM432 1292l537 211l35 -194l-549 -144z" />
<glyph unicode="&#xfb;" horiz-adv-x="1202" d="M98 328l111 733h295l-105 -696q-11 -82 33.5 -125t118.5 -43q78 0 135.5 46.5t69.5 127.5l102 690h297l-162 -1061h-223l-2 211q-24 -66 -64 -113.5t-87.5 -71.5t-93.5 -35t-93 -11q-66 1 -128 23t-113 63t-77 109.5t-14 152.5zM340 1219l303 276h203l217 -276h-232 l-106 153l-168 -153h-217z" />
<glyph unicode="&#xfc;" horiz-adv-x="1202" d="M98 328l111 733h295l-105 -696q-11 -82 33.5 -125t118.5 -43q78 0 135.5 46.5t69.5 127.5l102 690h297l-162 -1061h-223l-2 211q-24 -66 -64 -113.5t-87.5 -71.5t-93.5 -35t-93 -11q-66 1 -128 23t-113 63t-77 109.5t-14 152.5zM336 1225l41 270h301l-41 -270h-301z M766 1225l41 270h301l-41 -270h-301z" />
<glyph unicode="&#xfd;" horiz-adv-x="1130" d="M-31 -301l27 190l102 -4q50 -3 90.5 3.5t62.5 17t40 28.5t23 27.5t12 24.5l28 59l-252 1014h293l142 -690l348 690h289l-572 -1065q-56 -99 -110 -165.5t-109 -102.5t-107.5 -50t-117.5 -14q-63 0 -110 9t-63 19zM424 1292l537 211l34 -194l-549 -144z" />
<glyph unicode="&#xfe;" horiz-adv-x="1214" d="M10 -330l269 1811h296l-81 -555q75 72 150 112.5t181 40.5q178 0 268 -137.5t52 -402.5q-40 -277 -175 -418t-323 -141q-152 0 -244 102q-14 13 -20.5 16t-10 -3t-5.5 -25l-60 -400h-297zM397 272q65 -102 170 -102q225 0 279 373q52 346 -168 346q-81 0 -143.5 -50 t-71.5 -114z" />
<glyph unicode="&#xff;" horiz-adv-x="1130" d="M-31 -301l27 190l102 -4q50 -3 90.5 3.5t62.5 17t40 28.5t23 27.5t12 24.5l28 59l-252 1014h293l142 -690l348 690h289l-572 -1065q-56 -99 -110 -165.5t-109 -102.5t-107.5 -50t-117.5 -14q-63 0 -110 9t-63 19zM330 1225l41 270h301l-41 -270h-301zM760 1225l41 270 h301l-41 -270h-301z" />
<glyph unicode="&#x152;" horiz-adv-x="2250" d="M137 735q53 357 268.5 561.5t540.5 204.5q208 0 307 -108l97 88h901l-39 -248h-692l-54 -365h467l-37 -245h-466l-56 -373h715l-39 -250h-936l-55 88q-135 -108 -354 -108q-318 0 -470 201.5t-98 553.5zM489 733q-40 -269 17 -391.5t219 -122.5q161 0 251.5 121 t131.5 393q41 276 -14.5 403.5t-214.5 127.5q-161 0 -255.5 -128t-134.5 -403z" />
<glyph unicode="&#x153;" horiz-adv-x="1894" d="M70 522q38 248 208 402.5t396 154.5q215 0 330 -153q11 -12 18.5 -12t21.5 12q73 73 166 113t193 40q228 0 342 -162t72 -444h-717q-20 -129 42.5 -208t172.5 -79q140 0 282 148l172 -82q-118 -151 -237.5 -211.5t-284.5 -60.5q-215 0 -332 149q-13 19 -34 -2 q-160 -147 -373 -147q-230 0 -351 151t-87 391zM373 528q-26 -170 18.5 -259t149.5 -89q218 0 272 348q25 174 -18.5 265.5t-149.5 91.5t-176.5 -91.5t-95.5 -265.5zM1130 639l422 -2q15 97 -29 176.5t-137 79.5q-94 0 -166.5 -68.5t-89.5 -185.5z" />
<glyph unicode="&#x178;" horiz-adv-x="1323" d="M147 1481h320l240 -600l411 600h324l-629 -858l-92 -623h-295l92 623zM436 1649l41 270h301l-41 -270h-301zM866 1649l41 270h301l-41 -270h-301z" />
<glyph unicode="&#x2c6;" horiz-adv-x="757" d="M115 1219l303 276h203l217 -276h-232l-106 153l-168 -153h-217z" />
<glyph unicode="&#x2dc;" horiz-adv-x="835" d="M190 1391q51 46 97.5 70t109.5 24q58 0 150.5 -32t136.5 -32q76 0 174 72l14 -164q-99 -74 -215 -74q-57 0 -141.5 30t-134.5 30q-48 0 -84 -15.5t-82 -52.5z" />
<glyph unicode="&#x2000;" horiz-adv-x="1014" />
<glyph unicode="&#x2001;" horiz-adv-x="2028" />
<glyph unicode="&#x2002;" horiz-adv-x="1014" />
<glyph unicode="&#x2003;" horiz-adv-x="2028" />
<glyph unicode="&#x2004;" horiz-adv-x="676" />
<glyph unicode="&#x2005;" horiz-adv-x="507" />
<glyph unicode="&#x2006;" horiz-adv-x="338" />
<glyph unicode="&#x2007;" horiz-adv-x="338" />
<glyph unicode="&#x2008;" horiz-adv-x="253" />
<glyph unicode="&#x2009;" horiz-adv-x="405" />
<glyph unicode="&#x200a;" horiz-adv-x="112" />
<glyph unicode="&#x2010;" horiz-adv-x="798" d="M104 418l31 217l543 2l-31 -219h-543z" />
<glyph unicode="&#x2011;" horiz-adv-x="798" d="M104 418l31 217l543 2l-31 -219h-543z" />
<glyph unicode="&#x2012;" horiz-adv-x="798" d="M104 418l31 217l543 2l-31 -219h-543z" />
<glyph unicode="&#x2013;" horiz-adv-x="1198" d="M102 399l33 219h942l-33 -217z" />
<glyph unicode="&#x2014;" horiz-adv-x="1826" d="M100 399l35 219h1571l-33 -217z" />
<glyph unicode="&#x2018;" horiz-adv-x="575" d="M113 967l55 254l260 321h104l-167 -278l96 -11l-64 -286h-284z" />
<glyph unicode="&#x2019;" horiz-adv-x="518" d="M160 905l149 279l-102 10l37 287h301l-33 -254l-242 -322h-110z" />
<glyph unicode="&#x201a;" horiz-adv-x="587" d="M-18 -285l163 279l-108 10l45 289h317l-39 -254l-262 -324h-116z" />
<glyph unicode="&#x201c;" horiz-adv-x="978" d="M231 905l31 254l242 322h110l-149 -279l82 -8l215 287h110l-149 -279l102 -10l-37 -287h-557z" />
<glyph unicode="&#x201d;" horiz-adv-x="958" d="M160 905l149 279l-102 10l37 287h301l-33 -254l-242 -322h-110zM600 905l152 279l-105 10l37 287h301l-33 -254l-241 -322h-111z" />
<glyph unicode="&#x201e;" horiz-adv-x="1040" d="M-18 -285l163 279l-108 10l45 289h317l-39 -254l-262 -324h-116zM434 -285l164 279l-106 10l43 289h319l-39 -254l-264 -324h-117z" />
<glyph unicode="&#x2022;" horiz-adv-x="727" d="M129 754q0 106 74.5 181t181.5 75q106 0 181 -75t75 -181t-75 -182t-181 -76q-107 0 -181.5 76t-74.5 182z" />
<glyph unicode="&#x2026;" horiz-adv-x="1812" d="M70 0l49 326h321l-49 -326h-321zM711 0l49 326h321l-49 -326h-321zM1350 0l49 326h321l-49 -326h-321z" />
<glyph unicode="&#x202f;" horiz-adv-x="405" />
<glyph unicode="&#x2039;" horiz-adv-x="624" d="M102 514l293 399h156l-219 -399l104 -383h-157z" />
<glyph unicode="&#x203a;" horiz-adv-x="624" d="M59 131l215 383l-100 399h158l174 -399l-293 -383h-154z" />
<glyph unicode="&#x205f;" horiz-adv-x="507" />
<glyph unicode="&#x20ac;" horiz-adv-x="1308" d="M-4 494l24 163h160q2 27 10 95q5 33 15 75h-158l23 162h180q89 240 266.5 376t401.5 136q136 0 244 -54.5t171 -150.5l-225 -155q-46 59 -90.5 91t-110.5 32q-216 0 -317 -275h328l-25 -162h-346q-10 -40 -15 -79q-8 -62 -10 -91h344l-24 -163h-320q15 -131 80 -197 t168 -66q68 0 142.5 39t123.5 92l133 -172q-94 -94 -219 -152t-256 -58q-218 0 -354 138.5t-158 375.5h-186z" />
<glyph unicode="&#x2122;" horiz-adv-x="1937" d="M68 760l24 166h721l-25 -166h-266l-112 -760h-185l113 760h-270zM825 0l136 926h270l104 -660l301 660h269l-138 -926h-186l105 707l-318 -707h-143l-109 705l-106 -705h-185z" />
<glyph unicode="&#x25fc;" horiz-adv-x="1054" d="M0 0v1055h1055v-1055h-1055z" />
</font>
</defs>
</svg>
